<svg width="100" height="100" viewBox="0 0 100 100" fill="none" xmlns="http://www.w3.org/2000/svg">
<path d="M82 54.4471C82 74.0895 67.6643 87 49.9909 87C32.3175 87 18 74.071 18 54.4471C18 34.8231 32.3357 26.6341 50.0091 26.6341C67.6825 26.6341 82 34.8046 82 54.4471Z" fill="#E36D3C"/>
<path d="M60.0337 35.539C54.1098 38.8343 47.81 38.1153 45.9487 33.9613C44.0874 29.8073 47.3805 23.7561 53.2865 20.4608C59.1925 17.1656 67.3714 22.0386 67.3714 22.0386C67.3714 22.0386 65.9576 32.2438 60.0337 35.539Z" fill="#D1B800"/>
<path d="M52.7429 12H41.7714V37.6098H52.7429V12Z" fill="#D1B800"/>
</svg>
