<svg width="100" height="100" viewBox="0 0 100 100" fill="none" xmlns="http://www.w3.org/2000/svg">
<path d="M59.871 58.3235H40.129V87H59.871V58.3235Z" fill="#D1B800"/>
<path d="M58.0296 22.1649C62.5524 8.61168 37.4476 8.61168 41.9704 22.1649C37.4476 8.59044 17.1278 22.9509 28.992 31.3421C17.1278 22.9509 9.37136 46.1912 24.0103 46.1912C9.34951 46.1912 17.106 69.4102 28.9701 61.0403C17.106 69.4102 37.4258 83.7707 41.9704 70.2174C37.4476 83.7707 62.5524 83.7707 58.0296 70.2174C62.5524 83.7707 82.8722 69.4102 71.0299 61.0403C82.894 69.4102 90.6505 46.1912 75.9897 46.1912C90.6505 46.1912 82.894 22.9722 71.0299 31.3421C82.894 22.9509 62.5742 8.59044 58.0296 22.1649Z" fill="#577829"/>
</svg>
