<svg width="113" height="172" viewBox="0 0 113 172" fill="none" xmlns="http://www.w3.org/2000/svg">
<g clip-path="url(#clip0_2459:11025)">
<mask id="mask0_2459:11025" style="mask-type:alpha" maskUnits="userSpaceOnUse" x="0" y="0" width="113" height="172">
<path d="M0 0H90.8321C102.805 0 112.511 9.70604 112.511 21.679V149.948C112.511 161.921 102.805 171.627 90.8321 171.627H0V0Z" fill="#E7EDF5"/>
</mask>
<g mask="url(#mask0_2459:11025)">
</g>
<path d="M125.875 75.3951C125.875 66.2418 120.41 58.3485 112.582 54.7823C110.339 53.7599 108.668 51.8104 108.072 49.4329C105.566 39.5426 96.6401 32.2437 85.9722 32.2437C75.3042 32.2437 66.3546 39.5425 63.8726 49.4091C63.276 51.7866 61.6054 53.7362 59.362 54.7585C51.5341 58.3485 46.0688 66.2418 46.0688 75.3951C46.0688 80.2452 47.5962 84.7149 50.1976 88.4C51.4147 90.1118 51.8682 92.2753 51.5102 94.3437C50.5079 100.287 51.7966 107.016 56.8322 113.768C57.4766 114.624 58.2642 115.385 59.1472 115.979C65.8773 120.472 72.6313 121.542 78.5499 120.353H93.3705C94.0626 120.496 94.7308 120.615 95.4468 120.686C107.952 122.041 119.217 113.055 120.601 100.573C120.84 98.4568 120.768 96.3646 120.41 94.3675C120.052 92.2753 120.506 90.1356 121.723 88.4C124.324 84.7387 125.875 80.2452 125.875 75.3951Z" fill="#577829"/>
<path d="M101.032 97.8387L95.4711 100.264C94.421 100.715 93.8006 99.9547 93.8006 98.8135V86.926H77.0946V108.49L69.9349 102.261L64.8516 107.919L77.0946 120.211V141.608H93.8006V113.078C93.8006 110.701 94.1346 109.108 95.5427 108.49L104.063 104.781L101.032 97.8387Z" fill="#D1B800"/>
<path d="M65.4539 130.787C65.4539 138.551 59.7876 143.653 52.8022 143.653C45.8167 143.653 40.1577 138.543 40.1577 130.787C40.1577 123.03 45.8239 119.794 52.8094 119.794C59.7949 119.794 65.4539 123.023 65.4539 130.787Z" fill="#E36D3C"/>
<path d="M56.7717 123.313C54.4303 124.616 51.9403 124.332 51.2046 122.69C50.4689 121.048 51.7705 118.656 54.1049 117.354C56.4392 116.051 59.672 117.977 59.672 117.977C59.672 117.977 59.1132 122.011 56.7717 123.313Z" fill="#D1B800"/>
<path d="M53.8897 114.01H49.5532V124.132H53.8897V114.01Z" fill="#D1B800"/>
<path d="M15.1299 48.8501H50.0261C59.8727 48.8501 54.6574 32.5986 46.6835 38.4712C54.6574 32.619 41.005 22.5663 37.9644 32.0481C41.005 22.5663 24.1308 22.5663 27.1714 32.0481C24.1308 22.5663 10.4784 32.5986 18.4524 38.4712C10.4985 32.5986 5.2832 48.8501 15.1299 48.8501Z" fill="#FDFCF8"/>
</g>
<defs>
<clipPath id="clip0_2459:11025">
<rect width="113" height="172" fill="white"/>
</clipPath>
</defs>
</svg>
