<svg width="172" height="178" viewBox="0 0 172 178" fill="none" xmlns="http://www.w3.org/2000/svg">
<ellipse cx="86" cy="169.5" rx="86" ry="8.5" fill="#F5F8FC"/>
<path d="M101 111.7C115.6 105 149.4 93.2 160.4 111.3C162.7 115.1 163.6 119.7 164 124.1C165.2 137.9 161.8 153 154.4 164.7" stroke="#6ABF6C" stroke-width="8" stroke-miterlimit="10" stroke-linecap="round"/>
<path d="M8 162.5C21.6 163.2 35.9 164 49.5 163.6C78.3 162.7 84.9 139.8 89.5 115.5" stroke="#6ABF6C" stroke-width="8" stroke-miterlimit="10" stroke-linecap="round"/>
<path d="M93.8478 73C102.586 57.9948 103.82 39.2135 97.1376 23.2146C95.0815 18.3454 92.3057 13.5755 88.1934 10.0975C84.081 6.61945 78.6611 4.41645 73.0806 5.12887C67.5 5.8413 63 8 60.5 11.5C58 15 57.5 17.5 57.5 21" stroke="#6ABF6C" stroke-width="8" stroke-miterlimit="10" stroke-linecap="round"/>
<path d="M56.2001 84.5C37.8001 83.4 21.4001 67.8 15.9001 50.7C12.8001 40.9 13.9001 28.4 24.8001 24.4C30.7001 22.2 37.8001 23.8 42.3001 28.2" stroke="#6ABF6C" stroke-width="8" stroke-miterlimit="10" stroke-linecap="round"/>
<path d="M110.652 68.2344C104.546 60.3687 98.5055 54.9315 91.4737 48.0595C84.9673 41.7974 81.7853 32.753 73.7405 28.5191C68.8783 26.0059 63.7492 25.7823 59.4312 27.6388C55.1322 29.5933 51.7234 33.5108 50.3047 38.7705C47.9464 47.5695 51.7983 55.8733 52.0237 64.8821C52.2055 74.7131 53.1849 85.5078 54.894 95.347C58.3639 116.338 71.9402 129.668 93.0043 127.099C96.0807 126.705 99.081 125.918 101.809 124.777C104.518 123.539 107.151 121.908 109.511 119.924C125.662 106.206 123.7 85.1256 110.652 68.2344Z" fill="#6ABF6C"/>
<path d="M77.3996 100.2C73.5996 89.8001 77.4996 75.9001 87.2996 72.3001C97.0996 68.7001 109 76.8001 112.8 87.3001C116.6 97.7001 111.8 109.1 102 112.6C92.1996 116.2 81.1996 110.6 77.3996 100.2Z" fill="#F8D54F"/>
<path d="M71.2932 50.2555C75.2216 51.8889 80.2749 49.5557 81.5862 45.4654" stroke="#0F1720" stroke-width="1.5" stroke-miterlimit="10" stroke-linecap="round" stroke-linejoin="round"/>
<path d="M62.3102 45.2774C62.7493 46.7664 64.1803 47.9294 65.685 48.09C67.2897 48.2481 68.8682 47.4065 69.6339 46.086C70.3996 44.7655 70.2499 42.8688 69.3188 41.6927" stroke="#0F1720" stroke-width="1.5" stroke-miterlimit="10" stroke-linecap="round" stroke-linejoin="round"/>
<path d="M74.2521 39.0627C76.3692 43.5088 82.4357 42.1495 80.0977 36.9089" stroke="#0F1720" stroke-width="1.5" stroke-miterlimit="10" stroke-linecap="round" stroke-linejoin="round"/>
</svg>
