<?xml version="1.0" encoding="UTF-8"?>
<svg width="214px" height="170px" viewBox="0 0 214 170" version="1.1" xmlns="http://www.w3.org/2000/svg" xmlns:xlink="http://www.w3.org/1999/xlink">
    <!-- Generator: Sketch 52.6 (67491) - http://www.bohemiancoding.com/sketch -->
    <title>Group 864</title>
    <desc>Created with Sketch.</desc>
    <g id="Page-1" stroke="none" stroke-width="1" fill="none" fill-rule="evenodd">
        <g id="Group-864">
            <path d="M182.361,89.874 C179.756,90.272 177.966,92.715 178.362,95.331 C182.675,123.832 185.209,137.159 190.585,165.231 C191.083,167.829 193.583,169.531 196.171,169.031 C198.758,168.531 200.452,166.02 199.954,163.421 C194.586,135.388 192.08,122.205 187.794,93.891 C187.398,91.275 184.966,89.476 182.361,89.874 Z" id="Path" fill="#6ABF6C"></path>
            <path d="M160.972,84.037 C158.387,84.546 156.701,87.064 157.208,89.661 C163.032,119.505 165.735,134.656 169.92,164.974 C170.281,167.595 172.69,169.425 175.3,169.062 C177.91,168.698 179.732,166.279 179.37,163.658 C175.155,133.119 172.419,117.786 166.571,87.818 C166.064,85.221 163.558,83.528 160.972,84.037 Z" id="Path" fill="#6ABF6C"></path>
            <path d="M137.361,62.5183 C141.453,51.9585 148.2,41.9535 154.285,32.1924 C159.91,23.188 164.458,12.9221 172.467,5.8112 C177.269,1.5383 183.085,-0.058 188.519,0.7806 C195.778,1.9122 200.486,7.9514 201.967,10.9207 C207.439,21.8442 209.677,31.8212 211.581,50.4622 C213.195,66.2427 217.24,88.973 209.011,103.785 C201.003,118.192 182.703,126.475 165.939,122.437 C152.765,119.259 141.722,109.245 136.764,97.056 C131.762,84.771 133.156,73.359 137.361,62.5183 Z" id="Path" fill="#6ABF6C"></path>
            <path d="M190.208,84.64 C190.31,71.344 180.354,57.26 167.963,57.1769 C155.562,57.106 145.413,71.066 145.322,84.361 C145.232,97.657 155.2,108.499 167.602,108.581 C179.981,108.654 190.118,97.935 190.208,84.64 Z" id="Path" fill="#F8D54F"></path>
            <path d="M170.162,20.7753 C169.454,23.0802 169.97,25.2889 171.319,25.7036 C172.667,26.1183 174.33,24.5864 175.038,22.2815 C175.745,19.9767 175.229,17.768 173.881,17.3533 C172.532,16.9385 170.87,18.4705 170.162,20.7753 Z" id="Path" fill="#000000"></path>
            <path d="M180.167,23.8742 C179.46,26.179 179.976,28.3878 181.324,28.8025 C182.673,29.2172 184.335,27.6852 185.043,25.3804 C185.751,23.0756 185.234,20.8669 183.886,20.4521 C182.538,20.0374 180.875,21.5694 180.167,23.8742 Z" id="Path" fill="#000000"></path>
            <path d="M87.0859,21.1897 L143.606,1.1748 C146.906,0.0063 150.528,1.734 151.697,5.0338 L177.257,77.212 C178.425,80.512 176.697,84.134 173.398,85.303 L116.877,105.318 L87.0859,21.1897 Z" id="Path" fill="#F2A951"></path>
            <polygon id="Path" fill="#E36D3C" points="121.685 103.616 126.492 101.914 128.194 106.721 125.223 105.97 123.387 108.423"></polygon>
            <path d="M29.0781,154.956 L67.9519,154.956" id="Path" stroke="#6ABF6C" stroke-width="8.3301" stroke-linecap="round"></path>
            <path d="M26.3013,165.369 L78.3644,165.369" id="Path" stroke="#6ABF6C" stroke-width="8.3301" stroke-linecap="round"></path>
            <path d="M50.1904,130.26 C47.5409,123.495 43.1726,117.085 39.233,110.831 C35.5911,105.062 32.6464,98.485 27.4616,93.929 C24.3527,91.192 20.5872,90.169 17.0687,90.706 C12.3692,91.431 9.3206,95.3 8.3618,97.203 C4.8194,104.201 3.3701,110.593 2.1376,122.536 C1.0926,132.647 -1.52629,147.209 3.8016,156.699 C8.9862,165.929 20.834,171.236 31.688,168.649 C40.2174,166.613 47.3666,160.197 50.5765,152.388 C53.815,144.517 52.9131,137.206 50.1904,130.26 Z" id="Path" fill="#6ABF6C"></path>
            <path d="M15.9756,141.656 C15.91,133.138 22.3554,124.115 30.3779,124.061 C38.4066,124.016 44.978,132.96 45.0364,141.478 C45.0949,149.996 38.6415,156.942 30.6119,156.995 C22.5974,157.042 16.0341,150.174 15.9756,141.656 Z" id="Path" fill="#F8D54F"></path>
            <path d="M28.9537,103.516 C29.4119,104.993 29.0776,106.408 28.2046,106.674 C27.3316,106.94 26.2552,105.958 25.797,104.481 C25.3388,103.005 25.673,101.59 26.546,101.324 C27.419,101.058 28.4955,102.04 28.9537,103.516 Z" id="Path" fill="#000000"></path>
            <path d="M22.4757,105.502 C22.9339,106.978 22.5996,108.394 21.7266,108.659 C20.8536,108.925 19.7771,107.943 19.3189,106.467 C18.8607,104.99 19.195,103.575 20.068,103.309 C20.941,103.044 22.0175,104.025 22.4757,105.502 Z" id="Path" fill="#000000"></path>
        </g>
    </g>
</svg>