<svg width="113" height="172" viewBox="0 0 113 172" fill="none" xmlns="http://www.w3.org/2000/svg">
<mask id="mask0_2459:10730" style="mask-type:alpha" maskUnits="userSpaceOnUse" x="0" y="0" width="113" height="172">
<path d="M0 0H91.2268C103.252 0 113 9.74822 113 21.7732V150.227C113 162.252 103.252 172 91.2268 172H0V0Z" fill="#E7EDF5"/>
</mask>
<g mask="url(#mask0_2459:10730)">
<path d="M42.2256 43.0789L94.2555 35.7823L99.2101 70.9597C99.6148 73.8331 97.6133 76.4892 94.7396 76.8922L53.1162 82.7293C50.2425 83.1323 47.5849 81.1297 47.1802 78.2562L42.2256 43.0789Z" fill="white"/>
<rect width="6.56738" height="6.57721" transform="matrix(0.99031 -0.138878 0.139469 0.990226 59.8691 45.9177)" fill="#CFD1CC"/>
<rect width="6.56738" height="6.57721" transform="matrix(0.99031 -0.138878 0.139469 0.990226 61.52 57.6414)" fill="#E36D3C"/>
<rect width="6.56738" height="6.57721" transform="matrix(0.99031 -0.138878 0.139469 0.990226 63.1714 69.3645)" fill="#CFD1CC"/>
<rect width="6.56738" height="6.57721" transform="matrix(0.99031 -0.138878 0.139469 0.990226 49.8135 59.283)" fill="#E36D3C"/>
<rect width="6.56738" height="6.57721" transform="matrix(0.99031 -0.138878 0.139469 0.990226 51.4648 71.0061)" fill="#CFD1CC"/>
<rect width="6.56738" height="6.57721" transform="matrix(0.99031 -0.138878 0.139469 0.990226 71.5762 44.2761)" fill="#CFD1CC"/>
<rect width="6.56738" height="6.57721" transform="matrix(0.99031 -0.138878 0.139469 0.990226 73.2271 55.9995)" fill="#E36D3C"/>
<rect width="6.56738" height="6.57721" transform="matrix(0.99031 -0.138878 0.139469 0.990226 74.8784 67.7227)" fill="#CFD1CC"/>
<rect width="6.56738" height="6.57721" transform="matrix(0.99031 -0.138878 0.139469 0.990226 83.2827 42.6345)" fill="#CFD1CC"/>
<rect width="6.56738" height="6.57721" transform="matrix(0.99031 -0.138878 0.139469 0.990226 84.9336 54.3579)" fill="#E36D3C"/>
<path d="M40.7567 32.6505C40.352 29.7771 42.3535 27.1211 45.2271 26.7181L86.8506 20.8809C89.7243 20.4779 92.3819 22.4806 92.7866 25.354L94.2554 35.7823L42.2255 43.0788L40.7567 32.6505Z" fill="#E36D3C"/>
<rect width="3.94043" height="8.55038" rx="1.97021" transform="matrix(0.99031 -0.138878 0.139469 0.990226 53.04 20.9736)" fill="#C4C4C4"/>
<rect width="3.94043" height="8.55038" rx="1.97021" transform="matrix(0.99031 -0.138878 0.139469 0.990226 74.5024 17.9639)" fill="#C4C4C4"/>
<rect width="28.2397" height="4.60405" rx="2.30202" transform="matrix(0.99031 -0.138878 0.139469 0.990226 53.3901 32.8792)" fill="#F8A37F"/>
<path d="M43.4761 91.3625L117.178 108.341L105.648 158.171C104.707 162.241 100.643 164.78 96.5724 163.842L37.6129 150.26C33.542 149.322 31.0053 145.263 31.947 141.193L43.4761 91.3625Z" fill="white"/>
<rect width="9.45398" height="9.46942" transform="matrix(0.974477 0.224489 -0.225414 0.974263 65.7222 104.261)" fill="#CFD1CC"/>
<rect width="9.45398" height="9.46942" transform="matrix(0.974477 0.224489 -0.225414 0.974263 61.8799 120.868)" fill="#E36D3C"/>
<rect width="9.45398" height="9.46941" transform="matrix(0.974477 0.224489 -0.225414 0.974263 58.0371 137.474)" fill="#CFD1CC"/>
<rect width="9.45398" height="9.46942" transform="matrix(0.974477 0.224489 -0.225414 0.974263 45.2964 117.048)" fill="#E36D3C"/>
<rect width="9.45398" height="9.46941" transform="matrix(0.974477 0.224489 -0.225414 0.974263 41.4546 133.654)" fill="#CFD1CC"/>
<rect width="9.45398" height="9.46942" transform="matrix(0.974477 0.224489 -0.225414 0.974263 82.3047 108.082)" fill="#CFD1CC"/>
<rect width="9.45398" height="9.46942" transform="matrix(0.974477 0.224489 -0.225414 0.974263 78.4624 124.688)" fill="#E36D3C"/>
<rect width="9.45398" height="9.46941" transform="matrix(0.974477 0.224489 -0.225414 0.974263 74.6206 141.294)" fill="#CFD1CC"/>
<rect width="9.45397" height="9.46942" transform="matrix(0.974477 0.224489 -0.225414 0.974263 98.8872 111.902)" fill="#CFD1CC"/>
<rect width="9.45397" height="9.46942" transform="matrix(0.974477 0.224489 -0.225414 0.974263 95.0454 128.508)" fill="#E36D3C"/>
<path d="M46.8946 76.5905C47.8362 72.5205 51.8997 69.9814 55.9706 70.9192L114.93 84.5017C119.001 85.4395 121.538 89.4991 120.596 93.569L117.178 108.341L43.4767 91.3629L46.8946 76.5905Z" fill="#E36D3C"/>
<rect width="5.67239" height="12.3102" rx="2.8362" transform="matrix(0.974477 0.224489 -0.225414 0.974263 69.4399 67.22)" fill="#C4C4C4"/>
<rect width="5.67239" height="12.3102" rx="2.83619" transform="matrix(0.974477 0.224489 -0.225414 0.974263 99.8418 74.2234)" fill="#C4C4C4"/>
<rect width="40.6521" height="6.62859" rx="3.3143" transform="matrix(0.974477 0.224489 -0.225414 0.974263 63.7554 83.4019)" fill="#F8A37F"/>
</g>
</svg>
