<svg width="113" height="172" viewBox="0 0 113 172" fill="none" xmlns="http://www.w3.org/2000/svg">
<g clip-path="url(#clip0_2459:10948)">
<mask id="mask0_2459:10948" style="mask-type:alpha" maskUnits="userSpaceOnUse" x="0" y="-1" width="113" height="174">
<path d="M0 -0.169434H91.2268C103.252 -0.169434 113 9.57878 113 21.6038V150.43C113 162.455 103.252 172.203 91.2268 172.203H0V-0.169434Z" fill="#E7EDF5"/>
</mask>
<g mask="url(#mask0_2459:10948)">
<path d="M94.0907 26.3425L91.6732 16.2549L83.788 22.995L78.0911 17.1573L76.9937 38.0629L83.7718 40.2652L83.9526 40.3239L90.7307 42.5263L102.131 24.9683L94.0907 26.3425Z" fill="#BFD13E"/>
<path d="M98.8052 49.8098C95.762 59.1759 80.4502 90.443 68.798 86.657C57.1458 82.871 63.1366 48.5753 66.1799 39.2092C69.2232 29.843 80.0009 33.3449 85.5358 35.1433C91.0707 36.9417 101.848 40.4436 98.8052 49.8098Z" fill="#F2A951"/>
<path d="M98.7887 159.863L34.7352 145.075C30.6467 144.131 28.0817 140.098 29.0107 136.074L42.2919 78.547C43.2209 74.523 47.2943 72.0224 51.3828 72.9663L115.436 87.7542C119.525 88.6981 122.09 92.7313 121.161 96.7554L107.885 154.261C106.951 158.306 102.877 160.807 98.7887 159.863Z" fill="#ABDBF5"/>
<path d="M94.6414 101.941L63.8301 94.828C62.398 94.4974 61.4678 93.1524 61.78 91.8004L63.2614 85.3836C63.5686 84.053 64.9761 83.2251 66.4312 83.5611L97.2657 90.6797C98.6977 91.0104 99.6279 92.3553 99.3158 93.7074L97.8343 100.124C97.4991 101.471 96.0965 102.277 94.6414 101.941Z" fill="#0D1700"/>
<path d="M103.506 130.969C113.07 110.785 84.0539 101.714 83.3243 122.265C83.9611 126.276 87.037 130.239 85.702 134.044C84.5513 137.257 80.5758 138.961 79.4886 142.212C77.8303 146.687 83.4071 151.273 87.9255 149.718C89.9376 148.917 91.7905 147.244 93.3995 145.898C98.0696 141.915 101.365 136.598 103.506 130.969Z" fill="#CDE9F9"/>
<path d="M43.1671 117.017C43.4127 94.706 73.4506 99.2685 65.1198 118.064C62.7891 121.389 58.2864 123.603 57.8188 127.607C57.4443 131 60.2713 134.273 59.8234 137.672C59.3522 142.421 52.3284 144.098 48.9484 140.719C47.4908 139.118 46.5587 136.801 45.7023 134.886C43.2324 129.233 42.6013 123.009 43.1671 117.017Z" fill="#CDE9F9"/>
<path d="M39.4308 40.1988L32.2761 28.4261L28.6435 41.7148L20.6972 37.3552L30.1162 65.2388L37.2131 64.2414L37.4024 64.2148L44.4993 63.2174L45.8676 33.8178L39.4308 40.1988Z" fill="#D1B800"/>
<path d="M45.819 103.192L41.7003 103.771C31.4494 105.212 21.8868 98.0016 20.4453 87.7451L19.8971 83.844C18.4556 73.5875 25.6631 64.0393 35.8956 62.6012L40.0143 62.0223C50.2652 60.5817 59.8095 67.7943 61.2484 78.0324L61.7967 81.9336C63.2564 92.1874 56.0516 101.754 45.819 103.192Z" fill="#E36D3C"/>
</g>
</g>
<defs>
<clipPath id="clip0_2459:10948">
<rect width="113" height="172" fill="white" transform="translate(0 -0.169434)"/>
</clipPath>
</defs>
</svg>
