<svg width="56" height="115" viewBox="0 0 56 115" fill="none" xmlns="http://www.w3.org/2000/svg">
<ellipse cx="27" cy="109.5" rx="27" ry="5.5" fill="#F5F8FC"/>
<path d="M30.6374 81.8826L32.7305 107" stroke="#6ABF6C" stroke-width="4.70951" stroke-linecap="round" stroke-linejoin="round"/>
<path d="M21.2188 81.8826L23.3119 107" stroke="#6ABF6C" stroke-width="4.70951" stroke-linecap="round" stroke-linejoin="round"/>
<path d="M22.374 84.5198C28.8327 85.9586 35.8359 83.5296 40.4659 79.1424C45.1351 74.7224 46.7649 69.4157 47.0202 63.7986C47.2701 58.3269 46.2234 52.5733 45.4241 47.0583C44.6816 41.9684 44.6696 36.534 42.4854 31.8059C41.1784 28.9628 38.6244 26.7814 35.952 26.1644C33.2796 25.5474 29.7839 26.3322 27.3637 28.3112C23.3271 31.6067 20.9347 36.4825 18.0361 40.7318C14.9002 45.3383 11.4331 50.0533 9.26314 55.0782C7.03025 60.2387 6.16801 65.7261 8.4278 71.7423C10.6652 77.7185 15.8047 82.9508 22.3306 84.5098L22.374 84.5198Z" fill="#6ABF6C"/>
<path d="M11.0925 63.3805C12.4886 57.1124 18.7787 51.5838 24.7123 52.9125C30.6493 54.2481 33.9856 61.9379 32.5844 68.2042C31.1832 74.4705 25.2394 78.4723 19.3006 77.1418C13.3738 75.8099 9.69131 69.6468 11.0925 63.3805Z" fill="#F8D54F"/>
<ellipse rx="1.3082" ry="2.09312" transform="matrix(-0.97437 -0.224951 -0.224951 0.97437 31.4996 38.2557)" fill="#0F1720"/>
<ellipse rx="1.3082" ry="2.09312" transform="matrix(-0.97437 -0.224951 -0.224951 0.97437 26.4884 37.0988)" fill="#0F1720"/>
<path fill-rule="evenodd" clip-rule="evenodd" d="M50.9466 13.2407C52.9105 10.6122 52.967 6.85431 50.2085 4.78676C48.7577 3.69829 46.8495 3.38846 45.1413 3.94169C44.1994 2.50754 42.4472 1.52935 40.6369 1.491C37.1902 1.42193 34.9142 4.41555 34.8425 7.69568C34.7032 12.8861 40.0396 18.7583 40.0396 18.7583C40.0396 18.7583 47.7926 17.4542 50.9466 13.2407Z" fill="#E36D3C"/>
</svg>
