<svg width="479" height="78" viewBox="0 0 479 78" fill="none" xmlns="http://www.w3.org/2000/svg">
<path d="M63.0113 28.4556H67.4399C68.5994 28.4556 69.6175 28.0371 70.4716 27.2058C71.3256 26.3575 71.7555 25.3453 71.7555 24.1407V22.5516V22.2463C71.7555 16.4102 73.8312 11.4167 77.9827 7.2489C82.1342 3.08108 87.1171 1 92.9484 1H98.4517V10.3592C98.4517 10.772 98.2763 11.1396 97.937 11.462C97.5976 11.79 97.2017 11.9483 96.7549 11.9483H92.9428C90.0978 11.9483 87.6827 12.9549 85.6918 14.9568C83.7009 16.9587 82.6998 19.3904 82.6998 22.2406V22.546H82.6036V24.1351C82.6036 25.3396 83.0278 26.3519 83.8875 27.2001C84.7416 28.0314 85.7597 28.4499 86.9191 28.4499H93.4518V39.4095H86.9191C85.7597 39.4095 84.7416 39.8337 83.8875 40.6706C83.0278 41.5189 82.6036 42.5311 82.6036 43.73V76.394H71.7441V43.73C71.7441 42.5368 71.3143 41.5189 70.4602 40.6706C69.6062 39.8337 68.5881 39.4095 67.4286 39.4095H63V28.4556H63.0113Z" fill="#233345"/>
<path d="M122.41 22.4442C127.45 22.4442 132.105 23.6883 136.375 26.1766C140.645 28.6592 144.022 32.0353 146.511 36.3105C148.999 40.5801 150.244 45.2343 150.244 50.2673C150.244 55.2778 148.999 59.9093 146.511 64.1563C144.022 68.4089 140.645 71.7794 136.375 74.2676C132.105 76.7502 127.45 78 122.41 78C117.405 78 112.778 76.7502 108.519 74.2676C104.266 71.7794 100.895 68.4089 98.4121 64.1563C95.9235 59.9093 94.6791 55.2834 94.6791 50.2673C94.6791 45.2343 95.9235 40.5801 98.4121 36.3105C100.895 32.0353 104.266 28.6592 108.519 26.1766C112.778 23.6883 117.405 22.4442 122.41 22.4442ZM110.267 62.4089C113.632 65.768 117.676 67.4476 122.41 67.4476C127.144 67.4476 131.205 65.768 134.605 62.4089C137.998 59.0497 139.701 55.0063 139.701 50.2673C139.701 45.5397 137.998 41.4736 134.605 38.0749C131.205 34.6818 127.144 32.9853 122.41 32.9853C117.676 32.9853 113.632 34.6818 110.267 38.0749C106.907 41.4736 105.228 45.5397 105.228 50.2673C105.228 55.0063 106.907 59.0497 110.267 62.4089Z" fill="#233345"/>
<path d="M182.465 22.4442C187.504 22.4442 192.159 23.6883 196.429 26.1766C200.699 28.6592 204.076 32.0353 206.565 36.3105C209.053 40.5801 210.298 45.2343 210.298 50.2673C210.298 55.2778 209.053 59.9093 206.565 64.1563C204.076 68.4089 200.699 71.7794 196.429 74.2676C192.159 76.7502 187.504 78 182.465 78C177.459 78 172.832 76.7502 168.574 74.2676C164.32 71.7794 160.949 68.4089 158.466 64.1563C155.978 59.9093 154.733 55.2834 154.733 50.2673C154.733 45.2343 155.978 40.5801 158.466 36.3105C160.949 32.0353 164.32 28.6592 168.574 26.1766C172.827 23.6883 177.459 22.4442 182.465 22.4442ZM170.316 62.4089C173.681 65.768 177.725 67.4476 182.459 67.4476C187.193 67.4476 191.254 65.768 194.653 62.4089C198.047 59.0497 199.749 55.0063 199.749 50.2673C199.749 45.5397 198.047 41.4736 194.653 38.0749C191.254 34.6818 187.193 32.9853 182.459 32.9853C177.725 32.9853 173.681 34.6818 170.316 38.0749C166.956 41.4736 165.276 45.5397 165.276 50.2673C165.276 55.0063 166.962 59.0497 170.316 62.4089Z" fill="#233345"/>
<path d="M260.903 1.35359H271.858V76.394H260.903V75.9811C260.903 75.2912 260.654 74.7031 260.156 74.2111C259.653 73.7135 259.065 73.459 258.386 73.459C258.035 73.459 257.662 73.5268 257.255 73.6682C252.792 76.5467 247.871 77.9887 242.493 77.9887C237.453 77.9887 232.798 76.7389 228.528 74.2563C224.252 71.7681 220.875 68.3976 218.392 64.145C215.904 59.898 214.659 55.2665 214.659 50.256C214.659 45.223 215.904 40.5688 218.392 36.2992C220.875 32.024 224.252 28.6479 228.528 26.1653C232.798 23.677 237.453 22.4329 242.493 22.4329C247.77 22.4329 252.69 23.8693 257.255 26.7477C257.668 26.8891 258.041 26.957 258.386 26.957C259.065 26.957 259.658 26.7082 260.156 26.2105C260.648 25.7185 260.903 25.1191 260.903 24.4405V1.35359ZM242.487 67.0348C247.08 67.0348 251.022 65.4004 254.319 62.1205C257.617 58.8518 259.251 54.8932 259.251 50.2617C259.251 45.6358 257.611 41.6716 254.319 38.3633C251.022 35.0551 247.085 33.3925 242.487 33.3925C237.855 33.3925 233.89 35.0551 230.581 38.3633C227.267 41.6716 225.609 45.6358 225.609 50.2617C225.609 54.8876 227.261 58.8518 230.581 62.1205C233.89 65.4061 237.855 67.0348 242.487 67.0348Z" fill="#233345"/>
<path d="M314.483 23.6261H325.54L309.749 76.3996H292.176L276.333 23.6261H287.391L298.895 60.0337C299.523 62.0243 302.34 62.0243 302.967 60.0337L314.483 23.6261Z" fill="#233345"/>
<path d="M341.201 3.4912C342.558 4.84843 343.231 6.49973 343.231 8.4564C343.231 10.4187 342.558 12.07 341.201 13.4442C339.843 14.8184 338.203 15.5027 336.286 15.5027C334.334 15.5027 332.666 14.8184 331.297 13.4442C329.928 12.07 329.238 10.4131 329.238 8.4564C329.238 6.50538 329.928 4.84843 331.297 3.4912C332.666 2.13398 334.334 1.46102 336.286 1.46102C338.203 1.46102 339.843 2.13398 341.201 3.4912ZM330.833 23.5243H341.681V76.3996H330.833V23.5243Z" fill="#233345"/>
<path d="M366.452 77.819C371.531 77.819 375.931 76.2073 379.523 73.0292C383.108 69.851 384.93 65.9886 384.93 61.538C384.93 58.1619 383.844 55.0742 381.694 52.3654C379.534 49.634 376.689 47.6377 373.233 46.4275L364.342 43.4925C363.03 43.0967 361.927 42.3898 361.073 41.3888C360.213 40.3596 359.778 39.1946 359.778 37.9222C359.778 36.3727 360.434 35.0099 361.729 33.8845C363.041 32.7591 364.625 32.1823 366.44 32.1823C367.86 32.1823 369.166 32.5781 370.315 33.3586C371.446 34.122 372.204 35.1173 372.566 36.3049C372.962 36.8534 373.476 37.1305 374.104 37.1305H383.742C383.504 33.155 381.728 29.7223 378.465 26.923C375.128 24.0672 371.084 22.6195 366.44 22.6195C361.667 22.6195 357.521 24.1351 354.133 27.1323C350.739 30.1125 349.014 33.7431 349.014 37.9279C349.014 40.9986 349.959 43.8205 351.814 46.3144C353.675 48.8083 356.158 50.6915 359.189 51.9073L369.37 55.9111C370.58 56.4201 371.57 57.1779 372.317 58.1675C373.075 59.1685 373.459 60.2995 373.459 61.538C373.459 63.1949 372.752 64.6313 371.35 65.8246C369.953 67.0178 368.301 67.6229 366.44 67.6229C364.766 67.6229 363.279 67.1592 362.012 66.2543C360.745 65.3495 359.908 64.1789 359.534 62.7651C359.466 62.488 359.308 62.2505 359.014 62.0187C358.748 61.8207 358.431 61.7133 358.075 61.7133H347.911C347.962 66.0847 349.789 69.8849 353.352 73.0235C356.961 76.2073 361.367 77.819 366.452 77.819Z" fill="#233345"/>
<path d="M416.652 22.4442C421.697 22.4442 426.346 23.6883 430.622 26.1766C434.892 28.6592 438.269 32.0353 440.757 36.3105C443.24 40.5801 444.485 45.2343 444.485 50.2673C444.485 55.2778 443.24 59.9093 440.757 64.1563C438.269 68.4089 434.892 71.7794 430.622 74.2676C426.346 76.7502 421.697 78 416.652 78C411.646 78 407.014 76.7502 402.76 74.2676C398.513 71.7794 395.142 68.4089 392.653 64.1563C390.165 59.9093 388.926 55.2834 388.926 50.2673C388.926 45.2343 390.165 40.5801 392.653 36.3105C395.142 32.0353 398.513 28.6592 402.76 26.1766C407.019 23.6883 411.646 22.4442 416.652 22.4442ZM404.514 62.4089C407.873 65.768 411.923 67.4476 416.652 67.4476C421.386 67.4476 425.452 65.768 428.846 62.4089C432.245 59.0497 433.942 55.0063 433.942 50.2673C433.942 45.5397 432.245 41.4736 428.846 38.0749C425.452 34.6818 421.386 32.9853 416.652 32.9853C411.923 32.9853 407.873 34.6818 404.514 38.0749C401.148 41.4736 399.474 45.5397 399.474 50.2673C399.474 55.0063 401.148 59.0497 404.514 62.4089Z" fill="#233345"/>
<path d="M476.687 22.5516H479V31.86C479 32.3124 478.842 32.6913 478.514 33.0193C478.186 33.3416 477.784 33.5056 477.303 33.5056H476.687C472.055 33.5056 468.101 35.1456 464.826 38.4142C461.551 41.6942 459.911 45.6415 459.911 50.273H459.815V76.4053H449.985V50.273V42.7121V23.53H459.815V23.6318C459.815 24.3217 460.058 24.9098 460.556 25.4018C461.048 25.9051 461.642 26.154 462.326 26.154C462.807 26.154 463.203 26.0522 463.508 25.8486C467.699 23.6487 472.094 22.5516 476.687 22.5516Z" fill="#233345"/>
<path fill-rule="evenodd" clip-rule="evenodd" d="M20.3779 63.9851C21.1453 64.0758 21.9198 64.1255 22.6984 64.1311H22.7493C23.7291 64.1242 24.699 64.0493 25.6541 63.9123V74.5214C25.6541 76.0674 26.9937 77.3207 28.6463 77.3207C30.2988 77.3207 31.6384 76.0674 31.6384 74.5214V62.1853C35.6697 60.4074 39.1391 57.5453 41.5344 54.1629C45.6021 48.4324 46.0532 42.5017 44.8921 36.5819C43.9297 31.6549 41.8521 26.7358 39.8259 21.9385C39.482 21.1243 39.1395 20.3136 38.8043 19.5069C38.2604 18.2018 37.7635 16.8623 37.2647 15.5177C35.803 11.5775 34.3253 7.59413 31.6025 4.30696C29.4137 1.66016 25.7187 0 22.5807 0C19.4426 0 16.034 1.66016 13.8452 4.3106C11.1227 7.59468 9.64507 11.5788 8.18354 15.5194C7.68458 16.8647 7.18749 18.205 6.6434 19.5106C6.30989 20.3131 5.96936 21.1195 5.62737 21.9294C3.60025 26.73 1.52224 31.6511 0.555622 36.5855C-0.60545 42.5053 -0.154358 48.4324 3.91332 54.1665C6.41453 57.6962 10.1276 60.66 14.3936 62.4149V74.5214C14.3936 76.0674 15.7332 77.3207 17.3857 77.3207C19.0383 77.3207 20.3779 76.0674 20.3779 74.5214V63.9851Z" fill="#6ABF6C"/>
<path d="M33.5183 40.7767C33.5668 34.7719 28.7995 28.4115 22.8658 28.3739C16.9273 28.3419 12.0669 34.6467 12.0237 40.6509C11.9804 46.6552 16.7537 51.5516 22.6927 51.5886C28.6206 51.6217 33.4751 46.781 33.5183 40.7767Z" fill="#F8D54F"/>
</svg>
