<svg width="169" height="226" viewBox="0 0 169 226" fill="none" xmlns="http://www.w3.org/2000/svg">
<g clip-path="url(#clip0_2454:11457)">
<path d="M8.82395 56.4926C-7.86499 56.4926 -21.394 68.6146 -21.394 83.5678L21.9184 107.976C32.0499 103.604 39.0419 94.3177 39.0419 83.5678C39.0419 68.6146 25.5129 56.4926 8.82395 56.4926Z" fill="#FFE35E"/>
<path d="M32.3815 83.5683C32.3815 94.9695 22.0065 104.507 8.8235 104.507C-4.35951 104.507 -14.7345 94.9695 -14.7345 83.5683C-14.7345 72.1671 -4.35951 62.6293 8.8235 62.6293C22.0065 62.6293 32.3815 72.1671 32.3815 83.5683Z" fill="#FFE35E" stroke="#FFF6CD" stroke-width="3.24731"/>
<path d="M24.8272 83.5682C24.8272 91.2311 17.8345 97.7384 8.82369 97.7384C-0.187082 97.7384 -7.17981 91.2311 -7.17981 83.5682C-7.17981 75.9053 -0.187082 69.3979 8.82369 69.3979C17.8345 69.3979 24.8272 75.9053 24.8272 83.5682Z" fill="#FFE35E" stroke="#FFF6CD" stroke-width="3.24731"/>
<path d="M18.5325 83.5679C18.5325 88.1155 14.3583 92.0975 8.82442 92.0975C3.29051 92.0975 -0.883672 88.1155 -0.883672 83.5679C-0.883672 79.0202 3.29051 75.0383 8.82442 75.0383C14.3583 75.0383 18.5325 79.0202 18.5325 83.5679Z" fill="#FFE35E" stroke="#FFF6CD" stroke-width="3.24731"/>
<path d="M10.9772 83.5684C10.9772 84.3777 10.1853 85.3291 8.82364 85.3291C7.46195 85.3291 6.67004 84.3777 6.67004 83.5684C6.67004 82.759 7.46195 81.8076 8.82364 81.8076C10.1853 81.8076 10.9772 82.759 10.9772 83.5684Z" fill="#FFE35E" stroke="#FFF6CD" stroke-width="3.24731"/>
<path d="M105.522 56.4926C88.8328 56.4926 75.3037 68.6146 75.3037 83.5678C75.3037 95.0164 83.2342 104.805 94.4415 108.765L135.74 83.5678C135.74 68.6146 122.211 56.4926 105.522 56.4926Z" fill="#FFE35E"/>
<path d="M129.079 83.5683C129.079 94.9695 118.704 104.507 105.521 104.507C92.3378 104.507 81.9628 94.9695 81.9628 83.5683C81.9628 72.1671 92.3378 62.6293 105.521 62.6293C118.704 62.6293 129.079 72.1671 129.079 83.5683Z" fill="#FFE35E" stroke="#FFF6CD" stroke-width="3.24731"/>
<path d="M121.525 83.5682C121.525 91.2311 114.532 97.7384 105.521 97.7384C96.5107 97.7384 89.5179 91.2311 89.5179 83.5682C89.5179 75.9053 96.5107 69.3979 105.521 69.3979C114.532 69.3979 121.525 75.9053 121.525 83.5682Z" fill="#FFE35E" stroke="#FFF6CD" stroke-width="3.24731"/>
<path d="M115.229 83.5679C115.229 88.1155 111.055 92.0975 105.521 92.0975C99.9873 92.0975 95.8131 88.1155 95.8131 83.5679C95.8131 79.0202 99.9873 75.0383 105.521 75.0383C111.055 75.0383 115.229 79.0202 115.229 83.5679Z" fill="#FFE35E" stroke="#FFF6CD" stroke-width="3.24731"/>
<path d="M107.675 83.5684C107.675 84.3777 106.883 85.3291 105.521 85.3291C104.16 85.3291 103.368 84.3777 103.368 83.5684C103.368 82.759 104.16 81.8076 105.521 81.8076C106.883 81.8076 107.675 82.759 107.675 83.5684Z" fill="#FFE35E" stroke="#FFF6CD" stroke-width="3.24731"/>
<ellipse cx="57.1723" cy="79.0552" rx="30.218" ry="27.0752" fill="#FFE35E"/>
<path d="M80.7304 79.055C80.7304 90.4562 70.3554 99.9941 57.1724 99.9941C43.9894 99.9941 33.6144 90.4562 33.6144 79.055C33.6144 67.6538 43.9894 58.116 57.1724 58.116C70.3554 58.116 80.7304 67.6538 80.7304 79.055Z" fill="#FFE35E" stroke="#FFF6CD" stroke-width="3.24731"/>
<path d="M73.1751 79.0551C73.1751 86.718 66.1824 93.2254 57.1716 93.2254C48.1608 93.2254 41.1681 86.718 41.1681 79.0551C41.1681 71.3922 48.1608 64.8849 57.1716 64.8849C66.1824 64.8849 73.1751 71.3922 73.1751 79.0551Z" fill="#FFE35E" stroke="#FFF6CD" stroke-width="3.24731"/>
<path d="M66.8804 79.0551C66.8804 83.6027 62.7062 87.5846 57.1723 87.5846C51.6384 87.5846 47.4642 83.6027 47.4642 79.0551C47.4642 74.5074 51.6384 70.5255 57.1723 70.5255C62.7062 70.5255 66.8804 74.5074 66.8804 79.0551Z" fill="#FFE35E" stroke="#FFF6CD" stroke-width="3.24731"/>
<path d="M60.3877 79.0551C60.3877 80.2638 59.2051 81.6846 57.1716 81.6846C55.1381 81.6846 53.9555 80.2638 53.9555 79.0551C53.9555 77.8465 55.1381 76.4257 57.1716 76.4257C59.2051 76.4257 60.3877 77.8465 60.3877 79.0551Z" fill="#FFE35E" stroke="#FFF6CD" stroke-width="4.84941"/>
<path d="M-20.8401 92.66H132.84C132.84 128.857 103.497 158.2 67.2999 158.2H44.6999C8.50316 158.2 -20.8401 128.857 -20.8401 92.66Z" fill="#FFEE9E"/>
<rect x="125.441" y="98.5582" width="33.1116" height="9.25023" rx="4.62512" fill="#ABDBF5"/>
<path d="M21.376 174.873C21.376 160.824 32.765 149.435 46.8141 149.435H66.8913C80.9404 149.435 92.3295 160.824 92.3295 174.873H21.376Z" fill="#ABDBF5"/>
<path fill-rule="evenodd" clip-rule="evenodd" d="M141.997 77.7457H-28.291V86.1063C-28.291 127.468 5.239 160.998 46.6004 160.998H67.1059C108.467 160.998 141.997 127.468 141.997 86.1064V77.7457ZM56.8535 135.56C59.466 135.56 61.5838 133.489 61.5838 130.935C61.5838 128.381 59.466 126.31 56.8535 126.31C54.2411 126.31 52.1233 128.381 52.1233 130.935C52.1233 133.489 54.2411 135.56 56.8535 135.56ZM61.5838 117.06C61.5838 119.614 59.466 121.685 56.8535 121.685C54.2411 121.685 52.1233 119.614 52.1233 117.06C52.1233 114.505 54.2411 112.434 56.8535 112.434C59.466 112.434 61.5838 114.505 61.5838 117.06ZM56.8535 149.436C59.466 149.436 61.5838 147.365 61.5838 144.811C61.5838 142.256 59.466 140.185 56.8535 140.185C54.2411 140.185 52.1233 142.256 52.1233 144.811C52.1233 147.365 54.2411 149.436 56.8535 149.436ZM75.775 130.935C75.775 133.489 73.6572 135.56 71.0447 135.56C68.4323 135.56 66.3145 133.489 66.3145 130.935C66.3145 128.381 68.4323 126.31 71.0447 126.31C73.6572 126.31 75.775 128.381 75.775 130.935ZM42.6629 135.56C45.2753 135.56 47.3931 133.489 47.3931 130.935C47.3931 128.381 45.2753 126.31 42.6629 126.31C40.0504 126.31 37.9326 128.381 37.9326 130.935C37.9326 133.489 40.0504 135.56 42.6629 135.56ZM113.616 112.435C113.616 114.989 111.498 117.06 108.886 117.06C106.273 117.06 104.156 114.989 104.156 112.435C104.156 109.88 106.273 107.809 108.886 107.809C111.498 107.809 113.616 109.88 113.616 112.435ZM108.886 103.184C111.498 103.184 113.616 101.114 113.616 98.5592C113.616 96.0048 111.498 93.9341 108.886 93.9341C106.273 93.9341 104.156 96.0048 104.156 98.5592C104.156 101.114 106.273 103.184 108.886 103.184ZM113.616 126.31C113.616 128.865 111.498 130.935 108.886 130.935C106.273 130.935 104.156 128.865 104.156 126.31C104.156 123.756 106.273 121.685 108.886 121.685C111.498 121.685 113.616 123.756 113.616 126.31ZM123.077 117.06C125.689 117.06 127.807 114.989 127.807 112.435C127.807 109.88 125.689 107.809 123.077 107.809C120.464 107.809 118.346 109.88 118.346 112.435C118.346 114.989 120.464 117.06 123.077 117.06ZM99.4255 112.435C99.4255 114.989 97.3077 117.06 94.6952 117.06C92.0828 117.06 89.965 114.989 89.965 112.435C89.965 109.88 92.0828 107.809 94.6952 107.809C97.3077 107.809 99.4255 109.88 99.4255 112.435ZM4.82105 117.059C7.43348 117.059 9.55128 114.989 9.55128 112.434C9.55128 109.88 7.43348 107.809 4.82105 107.809C2.20861 107.809 0.0908165 109.88 0.0908165 112.434C0.0908165 114.989 2.20861 117.059 4.82105 117.059ZM9.55128 98.5591C9.55128 101.114 7.43348 103.184 4.82105 103.184C2.20861 103.184 0.0908165 101.114 0.0908165 98.5591C0.0908165 96.0048 2.20861 93.934 4.82105 93.934C7.43348 93.934 9.55128 96.0048 9.55128 98.5591ZM4.82105 130.935C7.43348 130.935 9.55128 128.864 9.55128 126.31C9.55128 123.755 7.43348 121.685 4.82105 121.685C2.20861 121.685 0.0908165 123.755 0.0908165 126.31C0.0908165 128.864 2.20861 130.935 4.82105 130.935ZM23.7419 112.434C23.7419 114.989 21.6241 117.059 19.0117 117.059C16.3993 117.059 14.2815 114.989 14.2815 112.434C14.2815 109.88 16.3993 107.809 19.0117 107.809C21.6241 107.809 23.7419 109.88 23.7419 112.434ZM-9.36961 117.059C-6.75718 117.059 -4.63938 114.989 -4.63938 112.434C-4.63938 109.88 -6.75718 107.809 -9.36961 107.809C-11.982 107.809 -14.0998 109.88 -14.0998 112.434C-14.0998 114.989 -11.982 117.059 -9.36961 117.059Z" fill="#CDE9F9"/>
<rect x="-37.7515" y="75.433" width="189.209" height="11.8154" rx="5.90772" fill="#E8F7FF"/>
</g>
<defs>
<clipPath id="clip0_2454:11457">
<rect width="169" height="226" fill="white"/>
</clipPath>
</defs>
</svg>
