<svg width="100" height="100" viewBox="0 0 100 100" fill="none" xmlns="http://www.w3.org/2000/svg">
<path d="M33.9736 25.6995C32.7542 22.7852 29.7926 21.2159 26.8964 21.6867C25.3286 18.5482 21.6484 17.1358 18.4474 18.5482C15.2463 19.9605 13.7002 23.6819 14.8326 27.0222C12.5025 28.8605 11.5662 32.1559 12.7856 35.0703C13.4824 36.7292 14.7455 37.9398 16.248 38.6123C16.3133 39.3073 16.4658 40.0022 16.7488 40.6972C18.1861 44.1496 22.0622 45.7412 25.3939 44.2617C25.8076 44.0823 26.1996 43.8581 26.548 43.6115L29.074 49.6644L33.0155 47.9158L30.4895 41.8629C30.6855 41.8181 30.8814 41.7733 31.0774 41.706C34.5616 40.6075 36.5214 36.8189 35.4544 33.232C35.1713 32.268 34.6922 31.4385 34.1043 30.7212C34.6705 29.1519 34.6705 27.3585 33.9736 25.6995Z" fill="#D1B800"/>
<path d="M73.6277 28.1207C76.3497 34.6219 74.085 39.3521 69.6644 41.3025C65.2657 43.2529 60.3661 41.6836 57.6659 35.1824C54.9439 28.6811 56.3158 21.8212 60.7363 19.8709C65.1568 17.9205 70.9274 21.5971 73.6277 28.1207Z" fill="#D1B800"/>
<path d="M70.6961 38.2838L66.8738 39.9726L71.7864 51.757L75.6087 50.0683L70.6961 38.2838Z" fill="#D1B800"/>
<path d="M66.7682 54.6636C71.4466 54.6636 75.2391 50.7593 75.2391 45.943C75.2391 41.1267 71.4466 37.2224 66.7682 37.2224C62.0899 37.2224 58.2974 41.1267 58.2974 45.943C58.2974 50.7593 62.0899 54.6636 66.7682 54.6636Z" fill="#E36D3C"/>
<path d="M18.1643 52.4218C22.121 52.4218 25.3286 49.1197 25.3286 45.0463C25.3286 40.9729 22.121 37.6708 18.1643 37.6708C14.2076 37.6708 11 40.9729 11 45.0463C11 49.1197 14.2076 52.4218 18.1643 52.4218Z" fill="#E36D3C"/>
<path d="M84.8205 50.3593C80.0516 55.9414 74.6947 55.8518 70.9057 52.4218C67.1167 48.9918 66.3545 43.5443 71.1452 37.9622C75.9359 32.3801 82.8389 30.6315 86.6279 34.0614C90.3952 37.4914 89.5894 44.7772 84.8205 50.3593Z" fill="#577829"/>
<path d="M76.3 52.0637L73.031 49.101L64.3973 59.1972L67.6663 62.1599L76.3 52.0637Z" fill="#577829"/>
<path d="M31.0774 33.4562C37.0223 38.8365 36.9134 44.8893 33.2768 49.1488C29.6402 53.4082 23.826 54.2825 17.8812 48.8798C11.9364 43.477 10.0854 35.6755 13.722 31.4161C17.3586 27.1567 25.1326 28.0758 31.0774 33.4562Z" fill="#577829"/>
<path d="M32.9108 45.5197L29.7595 49.2048L40.5145 58.9523L43.6658 55.2672L32.9108 45.5197Z" fill="#577829"/>
<path d="M61.346 41.5939C63.2187 49.5075 59.7564 54.3946 54.3995 55.7397C49.0426 57.0848 43.7946 54.3498 41.9436 46.4362C40.0927 38.5226 42.9235 31.0126 48.2804 29.6899C53.6373 28.3673 59.4951 33.6803 61.346 41.5939Z" fill="#577829"/>
<path d="M58.288 52.57L53.6531 53.7267L57.0289 68.0633L61.6638 66.9066L58.288 52.57Z" fill="#577829"/>
<path d="M53.0929 37.3569C52.8969 34.196 50.6105 31.6851 47.736 31.1247C47.2788 27.6275 44.2737 25.027 40.7895 25.2512C37.3054 25.4753 34.6487 28.4569 34.6269 31.999C31.8178 32.9406 29.8798 35.7204 30.0757 38.8813C30.1846 40.6972 30.9903 42.2664 32.188 43.4098C32.0138 44.0823 31.9485 44.7997 31.992 45.5395C32.2316 49.2833 35.3673 52.108 38.9821 51.8614C39.4394 51.8389 39.8749 51.7493 40.2887 51.6372L40.7024 58.2057L44.9705 57.9142L44.5568 51.3457C44.7527 51.3682 44.9487 51.3906 45.1665 51.413C48.8031 51.5699 51.8735 48.678 52.0477 44.9342C52.0912 43.9254 51.917 42.9838 51.5686 42.1095C52.6139 40.8317 53.2018 39.1503 53.0929 37.3569Z" fill="#D1B800"/>
<path d="M11 49.373C11 51.1303 11.131 52.8658 11.3494 54.558C11.4804 55.5777 11.677 56.5974 11.8954 57.5953C12.5724 60.6543 13.6206 63.5614 14.9964 66.2733C18.1848 72.6299 23.1421 77.9668 29.2132 81.6549C30.6545 82.5227 32.2924 83 33.974 83H64.2419C65.9235 83 67.5613 82.5227 69.0027 81.6549C75.0737 77.9668 80.0092 72.6299 83.2194 66.2733C84.5953 63.5614 85.6435 60.6543 86.3205 57.5953C86.5389 56.5974 86.7354 55.5994 86.8664 54.558C87.1067 52.8658 87.2159 51.1303 87.2159 49.373H11Z" fill="#F5F2DE"/>
<path fill-rule="evenodd" clip-rule="evenodd" d="M86.9583 53.8566H11.2643C11.2909 54.0912 11.3194 54.325 11.3494 54.558C11.4805 55.5777 11.677 56.5974 11.8954 57.5953C11.9506 57.8446 12.0082 58.0929 12.0683 58.3402H86.1476C86.2077 58.0929 86.2653 57.8446 86.3205 57.5953C86.5389 56.5974 86.7354 55.5994 86.8665 54.558C86.8995 54.325 86.9301 54.0912 86.9583 53.8566Z" fill="#3BB09E"/>
</svg>
