<svg width="100" height="100" viewBox="0 0 100 100" fill="none" xmlns="http://www.w3.org/2000/svg">
<path d="M47.4073 13.9681C43.0756 17.7667 34.2458 21.0166 28.4772 20.9533C26.5197 20.9321 24.8328 22.3883 24.5205 24.3509C23.625 30.0698 18.9602 38.2789 14.4619 41.9931C12.9209 43.2592 12.546 45.5173 13.5873 47.2266C16.5653 52.1648 18.1688 61.4501 17.0651 67.2324C16.6902 69.2161 17.8356 71.1998 19.7307 71.854C25.166 73.6899 32.2674 79.7254 35.0372 84.8957C35.9951 86.6894 38.1401 87.4703 40.0144 86.7105C45.3872 84.558 54.6336 84.558 59.9856 86.7105C61.8599 87.4703 64.0049 86.6894 64.9628 84.8957C67.7326 79.7254 74.834 73.6899 80.2693 71.854C82.1644 71.2209 83.3098 69.2372 82.9349 67.2324C81.8104 61.4501 83.4347 52.1648 86.4127 47.2266C87.454 45.5173 87.0791 43.2592 85.5381 41.9931C81.0398 38.2789 76.375 30.0698 75.4795 24.3509C75.1671 22.3672 73.4803 20.911 71.5019 20.9321C65.7334 20.9955 56.9243 17.7456 52.5719 13.947C51.1141 12.6808 48.9067 12.6808 47.4073 13.9681Z" fill="#FFEE9E"/>
<path d="M50.0001 77.75C64.7583 77.75 76.7223 65.7861 76.7223 51.0278C76.7223 36.2695 64.7583 24.3056 50.0001 24.3056C35.2418 24.3056 23.2778 36.2695 23.2778 51.0278C23.2778 65.7861 35.2418 77.75 50.0001 77.75Z" fill="#F2A951"/>
</svg>
