<svg width="113" height="172" viewBox="0 0 113 172" fill="none" xmlns="http://www.w3.org/2000/svg">
<mask id="mask0_2459:10975" style="mask-type:alpha" maskUnits="userSpaceOnUse" x="0" y="0" width="113" height="172">
<path d="M0 0H91.0294C103.028 0 112.756 9.72713 112.756 21.7261V150.274C112.756 162.273 103.028 172 91.0294 172H0V0Z" fill="#E7EDF5"/>
</mask>
<g mask="url(#mask0_2459:10975)">
<path d="M29.9409 42.9283C29.4043 40.6038 30.9032 38.273 33.2888 37.7222L59.2065 31.7387C61.5921 31.1879 63.9611 32.6258 64.4977 34.9503L64.9836 37.0547C65.2519 38.2169 64.5025 39.3823 63.3096 39.6577C62.1168 39.9331 61.3673 41.0985 61.6357 42.2608L62.6074 46.4696C62.8757 47.6319 64.0602 48.3508 65.253 48.0754C66.4458 47.8 67.6303 48.519 67.8986 49.6812L76.9353 88.8234C78.2233 94.4022 74.6259 99.9962 68.9004 101.318L55.0776 104.509C49.3521 105.831 43.6665 102.38 42.3785 96.8015L33.3418 57.6593C33.0735 56.497 33.823 55.3316 35.0158 55.0562C36.2086 54.7808 36.9581 53.6154 36.6897 52.4532L35.7181 48.2443C35.4497 47.0821 34.2652 46.3632 33.0724 46.6385C31.8796 46.9139 30.6951 46.195 30.4268 45.0327L29.9409 42.9283Z" fill="white"/>
<mask id="mask1_2459:10975" style="mask-type:alpha" maskUnits="userSpaceOnUse" x="29" y="31" width="49" height="74">
<path d="M29.9409 42.9283C29.4043 40.6038 30.9032 38.273 33.2888 37.7222L59.2065 31.7387C61.5921 31.1879 63.9611 32.6258 64.4977 34.9503L64.9836 37.0547C65.2519 38.2169 64.5025 39.3823 63.3096 39.6577C62.1168 39.9331 61.3673 41.0985 61.6357 42.2608L62.6074 46.4696C62.8757 47.6319 64.0602 48.3508 65.253 48.0754C66.4458 47.8 67.6303 48.519 67.8986 49.6812L76.9353 88.8234C78.2233 94.4022 74.6259 99.9962 68.9004 101.318L55.0776 104.509C49.3521 105.831 43.6665 102.38 42.3785 96.8015L33.3418 57.6593C33.0735 56.497 33.823 55.3316 35.0158 55.0562C36.2086 54.7808 36.9581 53.6154 36.6897 52.4532L35.7181 48.2443C35.4497 47.0821 34.2652 46.3632 33.0724 46.6385C31.8796 46.9139 30.6951 46.195 30.4268 45.0327L29.9409 42.9283Z" fill="white"/>
</mask>
<g mask="url(#mask1_2459:10975)">
<path d="M70.8903 62.6401L76.9352 88.8235C78.2232 94.4023 74.6258 99.9963 68.9002 101.318L55.0775 104.509C49.352 105.831 43.6664 102.38 42.3784 96.8016L36.3335 70.6182L70.8903 62.6401Z" fill="#ABDBF5"/>
</g>
<rect x="38.7217" y="21.8384" width="8.86645" height="12.9587" rx="2.39275" transform="rotate(-13 38.7217 21.8384)" fill="#89D0C5"/>
<path d="M32.6165 34.8091C32.022 32.2339 33.6277 29.6643 36.2029 29.0697L52.7948 25.2392C55.37 24.6447 57.9396 26.2503 58.5342 28.8255L59.2067 31.7386L33.2891 37.7222L32.6165 34.8091Z" fill="#3BB09E"/>
<rect x="56.1001" y="53.9983" width="73.2265" height="92.455" rx="8.13628" transform="rotate(13 56.1001 53.9983)" fill="#AD8B64"/>
<rect x="61.2676" y="62.1345" width="59.4966" height="78.925" rx="2.71209" transform="rotate(13 61.2676 62.1345)" fill="#F5F8FC"/>
<rect x="78.3804" y="57.2288" width="28.6643" height="12.0564" rx="4.06814" transform="rotate(13 78.3804 57.2288)" fill="#95A6BD"/>
<path d="M95.5763 60.1678C95.2129 61.7416 93.5934 62.7781 91.8983 62.3868C90.2032 61.9954 89.2019 60.3539 89.5653 58.7801C89.9286 57.2062 91.5481 56.1698 93.2433 56.5611C94.9384 56.9525 95.9396 58.594 95.5763 60.1678Z" stroke="#95A6BD" stroke-width="4.06814"/>
<path d="M76.4889 86.7711C77.2417 83.5105 75.1751 80.2051 71.913 79.452C68.6268 78.6933 65.3444 80.7638 64.5917 84.0244C63.8334 87.309 65.8814 90.5849 69.1676 91.3436C72.4297 92.0967 75.7306 90.0557 76.4889 86.7711ZM69.114 88.4019C68.9369 88.5125 68.6731 88.4516 68.5623 88.2745L66.6434 85.2052C66.5327 85.0281 66.5936 84.7644 66.7707 84.6538L67.4442 84.2537C67.6268 84.1191 67.8667 84.1745 67.9719 84.3755L69.2875 86.4469L73.7157 83.6813C73.8983 83.5467 74.1382 83.6021 74.2434 83.8032L74.6733 84.458C74.784 84.6351 74.7231 84.8988 74.546 85.0094L69.114 88.4019Z" fill="#5E718A"/>
<rect x="81.8765" y="82.7834" width="26.9151" height="4.01881" rx="2.00941" transform="rotate(13 81.8765 82.7834)" fill="#5E718A"/>
<rect x="80.5205" y="88.6567" width="13.4576" height="4.01881" rx="2.00941" transform="rotate(13 80.5205 88.6567)" fill="#5E718A"/>
<path d="M72.4154 104.391C73.1682 101.13 71.1029 97.8252 67.8423 97.0724C64.5577 96.3141 61.2766 98.3849 60.5238 101.646C59.7655 104.93 61.8123 108.206 65.0969 108.964C68.3575 109.717 71.6571 107.675 72.4154 104.391ZM65.0437 106.022C64.8666 106.133 64.6029 106.072 64.4923 105.895L62.5745 102.826C62.4639 102.649 62.5248 102.385 62.7018 102.275L63.375 101.874C63.5576 101.74 63.7974 101.795 63.9025 101.996L65.2172 104.067L69.6438 101.301C69.8264 101.167 70.0661 101.222 70.1712 101.423L70.6009 102.078C70.7115 102.255 70.6506 102.519 70.4736 102.629L65.0437 106.022Z" fill="#5E718A"/>
<rect x="77.8091" y="100.405" width="26.9151" height="4.01881" rx="2.0094" transform="rotate(13 77.8091 100.405)" fill="#5E718A"/>
<rect x="76.4531" y="106.278" width="13.4576" height="4.01882" rx="2.00941" transform="rotate(13 76.4531 106.278)" fill="#5E718A"/>
<path d="M68.3471 122.012C69.0998 118.751 67.0345 115.446 63.7739 114.693C60.4894 113.935 57.2082 116.006 56.4554 119.267C55.6971 122.551 57.744 125.827 61.0285 126.585C64.2891 127.338 67.5887 125.297 68.3471 122.012ZM60.9753 123.644C60.7983 123.754 60.5345 123.693 60.4239 123.516L58.5061 120.447C58.3955 120.27 58.4564 120.006 58.6335 119.896L59.3067 119.496C59.4892 119.361 59.729 119.416 59.8341 119.617L61.1489 121.689L65.5754 118.923C65.758 118.788 65.9977 118.843 66.1028 119.044L66.5325 119.699C66.6431 119.876 66.5823 120.14 66.4052 120.251L60.9753 123.644Z" fill="#5E718A"/>
<rect x="73.7402" y="118.026" width="26.9151" height="4.01881" rx="2.00941" transform="rotate(13 73.7402 118.026)" fill="#5E718A"/>
<rect x="72.3843" y="123.899" width="13.4576" height="4.01881" rx="2.0094" transform="rotate(13 72.3843 123.899)" fill="#5E718A"/>
<path d="M104.425 140.37L96.4558 138.531C94.0842 137.983 91.7178 139.462 91.1702 141.834L89.3717 149.624L104.425 140.37Z" fill="#D4DCE7"/>
<path d="M104.425 140.371L102.245 149.813C101.908 151.272 100.452 152.182 98.9922 151.845L89.3715 149.624L104.425 140.371Z" fill="#AD8B64"/>
</g>
</svg>
